# xmcd
#
# Track frame offsets:
#	150
#	19752
#	35460
#	56950
#	74099
#	91986
#	104749
#	119662
#	137011
#	155833
#	175476
#
# Disc length: 2571 seconds
#
# Revision: 0
# Processed by: cddbd v1.5.2PL0 Copyright (c) Steve Scherf et al.
# Submitted via: dBpowerAMP V4.0
#
DISCID=ab0a090b
DTITLE=Zac Brown - The Foundation
DYEAR=2010
DGENRE=Country
TTITLE0=TrackToes
TTITLE1=Whatever It Is
TTITLE2=Where the Boat Leaves From
TTITLE3=Violin Intro To Free
TTITLE4=Free
TTITLE5=Chicken Fried
TTITLE6=Mary
TTITLE7=Different Kind of Fine
TTITLE8=Highway 20 Ride
TTITLE9=It's Not OK
TTITLE10=Jolene
EXTD=
EXTT0=
EXTT1=
EXTT2=
EXTT3=
EXTT4=
EXTT5=
EXTT6=
EXTT7=
EXTT8=
EXTT9=
EXTT10=
PLAYORDER=
